# xmcd
#
# Track frame offsets: 
#        150
#        11862
#        28151
#        38155
#        51443
#        64095
#        78218
#        93821
#        107587
#        125448
#        156157
#        174074
#        202773
#        225384
#        246300
#        263946
#        289053
#        309197
#        331665
#
# Disc length: 4626 seconds
#
# Revision: 2
# Processed by: cddbd v1.5.2PL0 Copyright (c) Steve Scherf et al.
# Submitted via: ExactAudioCopyFreeDBPlugin 1.0
#
DISCID=ee121013
DTITLE=Billie Holiday - The Complete 1952-57 Small Groups Studio Sessi
DTITLE=ons - CD2
DYEAR=1914
DGENRE=Blues
TTITLE0=Love me or leave me
TTITLE1=P.S. I love you
TTITLE2=Too marvelous for words
TTITLE3=Softly
TTITLE4=I thought about you
TTITLE5=Willow weep for me
TTITLE6=Stormy blues
TTITLE7=Say it isn't so
TTITLE8=I've got my love to keep me warm
TTITLE9=I wished on the moon
TTITLE10=Always
TTITLE11=Everything happens to me
TTITLE12=Do nothin' till you hear from me
TTITLE13=Ain't misbehavin'
TTITLE14=I don't want to cry anymore
TTITLE15=Prelude to a kiss
TTITLE16=I don't stand a ghost of a chance with you
TTITLE17=When your lover has gone
TTITLE18=Gone with the wind
EXTD=
EXTT0=
EXTT1=
EXTT2=
EXTT3=
EXTT4=
EXTT5=
EXTT6=
EXTT7=
EXTT8=
EXTT9=
EXTT10=
EXTT11=
EXTT12=
EXTT13=
EXTT14=
EXTT15=
EXTT16=
EXTT17=
EXTT18=
PLAYORDER=
